<svg xmlns="http://www.w3.org/2000/svg" fill="none" viewBox="0 0 66 164">
  <path d="M17.57 105.948S7.431 93.055 7.431 85.224c0-7.832 7.826 3.7 7.826 3.7S-1.301 58.529.082 46.09c1.384-12.44 13.79 21.655 13.79 21.655S9.746-2.238 16.64.055c6.896 2.293 15.65 68.099 15.65 72.298 0 4.2 5.966-29.01 10.57-19.34 4.605 9.67 4.537 32.688 4.537 32.688s5.989-35.003 10.593-23.018-5.49 43.719-5.49 43.719" fill="#B4DEDE"/>
  <path d="M64.046 116.595H8.043v46.511h56.003v-46.511z" stroke="#263238" stroke-linecap="round" stroke-linejoin="round"/>
  <path d="M64.5 132.711v-26.445H7.794v30.372a6.812 6.812 0 006.805 6.81h.363a6.812 6.812 0 006.805-6.81v-3.836h.362v3.836a6.812 6.812 0 006.805 6.81h.363a6.812 6.812 0 006.805-6.81v-3.836h.362v3.836a6.812 6.812 0 006.805 6.81h.34a6.812 6.812 0 006.805-6.81v-3.836h.363v3.836a6.812 6.812 0 006.804 6.81h.34a6.812 6.812 0 006.805-6.81v-3.836l-.226-.091z" fill="#fff" stroke="#263238" stroke-linecap="round" stroke-linejoin="round"/>
</svg>
