<svg xmlns="http://www.w3.org/2000/svg" fill="none" viewBox="0 0 427 512">
  <path d="M200.655 151.82c-8.846 9.761-41.531 11.145-70.201 11.032-28.671-.113-65.098-16.321-77.279-33.731-12.18-17.411 12.407-52.936 16.717-61.176 4.31-8.24 6.034-48.713 30.735-60.585s76.711-5.697 93.609 6.81c16.899 12.508 52.51 34.367 58.317 56 5.806 21.632-14.449 21.882-16.173 22.926-1.724 1.044-4.536 2.066-8.891 10.329a16.256 16.256 0 01-13.292 8.421l-13.542 39.974z" fill="#263238" stroke="#263238" stroke-linecap="round" stroke-linejoin="round"/>
  <path d="M227.353 63.564c16.422 4.336 27.218 9.625 19.03 15.39m-85.195-26.739s32.391 3.563 57.908 9.26m-71.88-14.572s41.577-13.87 81.044 3.2m-32.708-22.245c2.053.52 4.069 1.18 6.033 1.975m-69.294 12.802S157.4 25.406 184.075 26.27M67.964 125.852a40.86 40.86 0 01-9.232 2.134m84.31-62.946s-29.849 29.872-49.039 45.875a85.75 85.75 0 01-18.259 11.827m48.019-64.103s-30.916 35.206-58.634 45.784" stroke="#545454" stroke-linecap="round" stroke-linejoin="round"/>
  <path d="M408.425 468.796s10.683 9.648 12.09 12.394c1.406 2.747 6.646 14.46 4.718 14.755-1.928.295-6.578-7.173-7.962-10.306-1.383-3.132-6.805-11.349-6.805-11.349l-2.041-5.494z" fill="#fff" stroke="#263238" stroke-linecap="round" stroke-linejoin="round"/>
  <path d="M401.734 462.009s7.372 6.81 8.778 9.557c1.406 2.746 7.984 27.534 7.984 27.534s-3.175 2.543-5.398 1.317c-2.223-1.226-10.003-25.719-10.003-25.719l-1.361-12.689z" fill="#fff" stroke="#263238" stroke-linecap="round" stroke-linejoin="round"/>
  <path d="M384.972 451.318s13.473 7.105 16.762 10.691c3.289 3.587 8.506 33.3 9.549 36.024 1.044 2.724-5.194 4.744-6.668 3.541-1.475-1.203-7.531-27.148-7.531-27.148l-12.158-19.658.046-3.45z" fill="#fff" stroke="#263238" stroke-linecap="round" stroke-linejoin="round"/>
  <path d="M352.99 448.026l25.494.5a14.073 14.073 0 0111.092 5.811l10.706 14.891 1.837 29.622a2.695 2.695 0 01-1.686 2.62 2.702 2.702 0 01-1.081.195 2.767 2.767 0 01-2.495-1.997l-7.417-26.786-9.731-4.54s-14.902 8.172-14.584 9.716c.317 1.543 8.664 11.872 10.479 14.232 1.814 2.361 6.237 6.402 4.99 8.649-1.248 2.247-8.801 0-11.341-1.657-2.541-1.657-16.4-19.091-21.594-22.7-5.194-3.609-10.774-7.377-10.774-7.377l16.105-21.179z" fill="#fff" stroke="#263238" stroke-linecap="round" stroke-linejoin="round"/>
  <path d="M348.43 454.882l-3.47 19.181-5.807-4.654 9.277-14.527z" fill="#263238" stroke="#263238" stroke-linecap="round" stroke-linejoin="round"/>
  <path d="M238.308 206.776s22.932 6.128 26.153 21.11 17.397 162.551 17.397 162.551l75.986 49.417-23 35.525-72.153-14.187-42.257-259.161 17.874 4.745z" fill="#fff" stroke="#263238" stroke-linecap="round" stroke-linejoin="round"/>
  <path d="M281.858 390.438s-10.048 5.311-13.609 10.078" stroke="#263238" stroke-linecap="round" stroke-linejoin="round"/>
  <path d="M250.783 241.233l19.8 269.438H14.943s7.226-288.914 10.31-294.952c3.085-6.038 27.945-8.921 48.472-15.367 20.528-6.447 57.137-18.75 57.137-18.75l48.177 2.043c13.473.59 69.158 26.626 69.068 28.874" fill="#fff"/>
  <path d="M250.783 241.233l19.8 269.438H14.943s7.226-288.914 10.31-294.952c3.085-6.038 27.945-8.921 48.472-15.367 20.528-6.447 57.137-18.75 57.137-18.75l48.177 2.043c13.473.59 69.158 26.626 69.068 28.874" stroke="#263238" stroke-linecap="round" stroke-linejoin="round"/>
  <path d="M253.12 295.054h-25.427v9.852h25.427v-9.852z" fill="#263238" stroke="#263238" stroke-linecap="round" stroke-linejoin="round"/>
  <path d="M103.847 192.656l2.405 100.854 28.942 6.878-16.308 25.742 40.669 113.202" fill="#fff"/>
  <path d="M103.847 192.656l2.405 100.854 28.942 6.878-16.308 25.742 40.669 113.202" stroke="#263238" stroke-linecap="round" stroke-linejoin="round"/>
  <path d="M190.154 186.823s26.833 55.75 34.477 74.091c7.644 18.341 10.774 24.107 10.774 24.107l-19.144 13.256 19.575 15.481-18.305 98.244" fill="#fff"/>
  <path d="M190.154 186.823s26.833 55.75 34.477 74.091c7.644 18.341 10.774 24.107 10.774 24.107l-19.144 13.256 19.575 15.481-18.305 98.244" stroke="#263238" stroke-linecap="round" stroke-linejoin="round"/>
  <path d="M113.556 188.412s38.786 104.213 41.848 137.536c3.062 33.323 10.135 184.723 10.135 184.723h50.198s-1.744-148.903-9.411-205.47c-7.667-56.567-18.577-103.805-20.573-109.503a55.737 55.737 0 00-6.805-12.121l-30.802-4.54-34.59 9.375z" fill="#066" stroke="#263238" stroke-linecap="round" stroke-linejoin="round"/>
  <path d="M208.73 358.84l-19.03 39.315m11.885-39.315l-27.354 57.18" stroke="#263238" stroke-linecap="round" stroke-linejoin="round"/>
  <path d="M129.66 141.991s.159 35.48-.567 39.384c-.726 3.904-12.09 2.497-12.317 7.559-.226 5.062 17.012 52.867 33.797 67.667 16.785 14.8 21.956 12.757 26.947 1.158 4.99-11.6 6.464-34.39 6.804-41.699.136-3.246.817-11.35 0-15.3-1.179-5.561-2.676-13.506-7.371-16.729l-1.792-1.226.748-17.411s-28.602-2.36-46.249-23.403z" fill="#fff" stroke="#263238" stroke-linecap="round" stroke-linejoin="round"/>
  <path d="M175.138 182.805l.748-17.411s-28.579-2.27-46.226-23.403v.227l1.179 5.448s11.115 32.71 46.091 36.319l-1.792-1.18z" fill="#263238" stroke="#263238" stroke-linecap="round" stroke-linejoin="round"/>
  <path d="M157.015 55.937s-31.755-9.806-33.139-14.369c-1.384-4.562.136-15.753-3.901-13.62-4.038 2.134-3.493 15.595 1.95 19.772 5.444 4.177 35.566 9.988 37.63 14.573 2.064 4.585-.907 7.831-11.046 20.906s-54.256 32.574-54.46 37.114c-.204 4.54 4.831 18.16 12.679 19.113a23.411 23.411 0 0014.199-3.314 68.566 68.566 0 0023.635 25.787c15.878 9.692 38.787 13.483 52.691 3.972 7.599-5.221 21.004-30.622 22.025-41.268 1.02-10.646-4.65-22.699-4.537-27.24.114-4.539.431-10.1.431-10.1s-39.535-21.974-44.956-26.718a21.72 21.72 0 00-13.201-4.608v0z" fill="#fff" stroke="#263238" stroke-linecap="round" stroke-linejoin="round"/>
  <path d="M150.21 87.172s11.341-7.264 22.682-1.566m21.889.522s7.235-3.632 14.04 4.676m-20.233 14.913s-.884 7.832 1.271 9.625c2.155 1.793 6.623 3.087 4.241 6.378-2.381 3.292-9.73 3.519-12.929-.567m16.899 12.553s-9.277 6.356-24.202.635" stroke="#263238" stroke-linecap="round" stroke-linejoin="round"/>
  <path d="M164.613 104.287c-.136 3.11-2.018 5.562-4.173 5.448-2.155-.113-3.834-2.678-3.697-5.788.136-3.11 1.996-5.539 4.173-5.448 2.178.09 3.833 2.701 3.697 5.788zm39.853 1.725c-.136 3.11-2.019 5.562-4.174 5.448-2.154-.113-3.833-2.678-3.697-5.788.136-3.11 2.019-5.539 4.174-5.448 2.155.091 3.833 2.701 3.697 5.788z" fill="#263238"/>
  <path d="M175.346 91.665l-27.42-1.188a5.944 5.944 0 00-6.194 5.684l-.458 10.591a5.945 5.945 0 005.68 6.199l27.419 1.189a5.945 5.945 0 006.195-5.685l.458-10.59a5.945 5.945 0 00-5.68-6.2zm40.98 1.795l-21.8-.945a5.945 5.945 0 00-6.195 5.685l-.458 10.59a5.945 5.945 0 005.68 6.199l21.8.945a5.944 5.944 0 006.194-5.684l.459-10.59a5.945 5.945 0 00-5.68-6.2zm-35.132 1.248l6.737.295m-46.34 5.312l-15.719-.681" stroke="#263238" stroke-linecap="round" stroke-linejoin="round"/>
  <path d="M154.588 434.679s16.49-.727 22.342-3.337c5.852-2.61 47.088-13.62 49.198-12.916a159.367 159.367 0 0120.414 10.192c3.334 2.452 10.502 21.996 13.223 29.737a3.54 3.54 0 01-1.905 4.539v0a3.578 3.578 0 01-4.536-1.339l-5.943-9.534 4.287 17.842a3.789 3.789 0 01-2.518 4.54v0a3.81 3.81 0 01-4.128-1.203l-13.972-17.274-6.805-6.81 14.29 26.558a3.498 3.498 0 01-2.472 5.085 3.509 3.509 0 01-3.017-.931c-4.106-3.995-16.808-16.366-17.919-18.159a58.442 58.442 0 00-7.553-7.469l13.881 26.377a3.098 3.098 0 01.455 2.542 3.091 3.091 0 01-1.634 1.998h-.205c-4.717.182-7.099-3.178-10.479-6.492l-14.607-14.301s-22.388 4.745-28.761 3.042c-6.374-1.702-20.913-13.075-20.913-13.075l9.277-19.612z" fill="#fff" stroke="#263238" stroke-linecap="round" stroke-linejoin="round"/>
  <path d="M154.588 434.679l-.635 25.423-8.801-5.788 9.436-19.635z" fill="#263238" stroke="#263238" stroke-linecap="round" stroke-linejoin="round"/>
  <path d="M247.29 452.021l-5.013-10.146-17.692-12.939" fill="#fff"/>
  <path d="M247.29 452.021l-5.013-10.146-17.692-12.939m-.499 20.202l-8.029-8.398" stroke="#263238" stroke-linecap="round" stroke-linejoin="round"/>
  <path d="M49.115 209.545s-22.138-.953-28.217 7.377C14.82 225.253.666 423.375 1.006 431.978c.34 8.603 136.797 43.492 136.797 43.492l19.711-42.108-81.498-48.259 4.74-112.59" fill="#fff"/>
  <path d="M49.115 209.545s-22.138-.953-28.217 7.377C14.82 225.253.666 423.375 1.006 431.978c.34 8.603 136.797 43.492 136.797 43.492l19.711-42.108-81.498-48.259 4.74-112.59M39.747 386.238s21.367-10.623 36.292-1.135m-27.854 7.831a43.734 43.734 0 0122.229-6.31m-32.867 16.82a18.938 18.938 0 011.701-2.519" stroke="#263238" stroke-linecap="round" stroke-linejoin="round"/>
</svg>
