<svg xmlns="http://www.w3.org/2000/svg" fill="none" viewBox="0 0 143 75">
  <path d="M84.199 31.046V11.502H41.51V30.32l42.688.726z" fill="#BFBFBF" stroke="#263238" stroke-linecap="round" stroke-linejoin="round"/>
  <path d="M41.51 11.502L37.178 1.355a85.766 85.766 0 0125.314 1.453 61.217 61.217 0 0121.707 8.694H41.51z" fill="#fff" stroke="#263238" stroke-linecap="round" stroke-linejoin="round"/>
  <path d="M37.178 1.355s-14.471.726-22.433 10.873a46.01 46.01 0 00-8.687 23.154l35.453-5.062V11.502L37.177 1.355z" fill="#fff" stroke="#263238" stroke-linecap="round" stroke-linejoin="round"/>
  <path d="M29.943 18.016v14.46l-10.865.726c-.295-4 .488-8.005 2.268-11.6a6.943 6.943 0 018.597-3.586v0zm10.116 55.75h-22.41L3.177 48.411l28.217-7.218 8.665 32.573z" fill="#fff" stroke="#263238" stroke-linecap="round" stroke-linejoin="round"/>
  <path d="M137.729 46.255l-14.472 27.511H40.059L27.765 49.864l109.964-3.61z" fill="#A6A6A6" stroke="#263238" stroke-linecap="round" stroke-linejoin="round"/>
  <path d="M27.788 49.887h114.296V29.616H27.788v20.27z" fill="#BFBFBF" stroke="#263238" stroke-linecap="round" stroke-linejoin="round"/>
  <path d="M27.765 29.593L1 39.013v12.304l26.765-1.453v-20.27z" fill="#fff" stroke="#263238" stroke-linecap="round" stroke-linejoin="round"/>
</svg>
